<svg width="709" height="153" viewBox="0 0 709 153" fill="none" xmlns="http://www.w3.org/2000/svg">
<mask id="path-1-outside-1_2021_20056" maskUnits="userSpaceOnUse" x="0.640625" y="29.6968" width="102" height="70" fill="black">
<rect fill="white" x="0.640625" y="29.6968" width="102" height="70"/>
<path fill-rule="evenodd" clip-rule="evenodd" d="M1.64062 32.2696H8.01477V44.1719C12.3015 37.241 18.2864 30.6968 30.1244 30.6968C41.6927 30.6968 48.8481 37.3738 52.4913 45.0877C56.7847 37.6354 63.9343 30.6968 76.4234 30.6968C92.1503 30.6968 101.911 41.8248 101.911 58.5648V98.9999H95.5334V59.3468C95.5334 44.9685 88.1285 36.5937 75.8985 36.5937C64.7155 36.5937 54.9583 45.2185 54.9583 60.1444V98.9999H48.5822V58.9553C48.5822 45.0877 41.0405 36.5937 29.2093 36.5937C17.3761 36.5937 8.01477 47.0588 8.01477 60.532V98.9999H1.64062V32.2696Z"/>
</mask>
<path fill-rule="evenodd" clip-rule="evenodd" d="M1.64062 32.2696H8.01477V44.1719C12.3015 37.241 18.2864 30.6968 30.1244 30.6968C41.6927 30.6968 48.8481 37.3738 52.4913 45.0877C56.7847 37.6354 63.9343 30.6968 76.4234 30.6968C92.1503 30.6968 101.911 41.8248 101.911 58.5648V98.9999H95.5334V59.3468C95.5334 44.9685 88.1285 36.5937 75.8985 36.5937C64.7155 36.5937 54.9583 45.2185 54.9583 60.1444V98.9999H48.5822V58.9553C48.5822 45.0877 41.0405 36.5937 29.2093 36.5937C17.3761 36.5937 8.01477 47.0588 8.01477 60.532V98.9999H1.64062V32.2696Z" fill="#004B87"/>
<path d="M1.64062 31.9696C1.47494 31.9696 1.34062 32.1039 1.34062 32.2696C1.34062 32.4353 1.47494 32.5696 1.64062 32.5696V31.9696ZM8.01477 32.2696H8.31477C8.31477 32.1039 8.18046 31.9696 8.01477 31.9696V32.2696ZM8.01477 44.1719H7.71477C7.71477 44.306 7.80376 44.4238 7.93275 44.4605C8.06173 44.4972 8.19938 44.4438 8.26992 44.3297L8.01477 44.1719ZM52.4913 45.0877L52.22 45.2158C52.2677 45.3168 52.3675 45.3829 52.479 45.3875C52.5906 45.392 52.6955 45.3342 52.7512 45.2375L52.4913 45.0877ZM101.911 98.9999V99.2999C102.077 99.2999 102.211 99.1656 102.211 98.9999H101.911ZM95.5334 98.9999H95.2334C95.2334 99.1656 95.3677 99.2999 95.5334 99.2999V98.9999ZM54.9583 98.9999V99.2999C55.1239 99.2999 55.2583 99.1656 55.2583 98.9999H54.9583ZM48.5822 98.9999H48.2822C48.2822 99.1656 48.4165 99.2999 48.5822 99.2999V98.9999ZM8.01477 98.9999V99.2999C8.18046 99.2999 8.31477 99.1656 8.31477 98.9999H8.01477ZM1.64062 98.9999H1.34062C1.34062 99.1656 1.47494 99.2999 1.64062 99.2999V98.9999ZM1.94063 32.2696C1.94063 32.1039 1.80631 31.9696 1.64062 31.9696C1.47494 31.9696 1.34062 32.1039 1.34062 32.2696H1.94063ZM1.64062 32.5696H8.01477V31.9696H1.64062V32.5696ZM7.71477 32.2696V44.1719H8.31477V32.2696H7.71477ZM8.26992 44.3297C10.404 40.8793 12.9468 37.5487 16.412 35.0796C19.8714 32.6145 24.2659 30.9968 30.1244 30.9968V30.3968C24.1449 30.3968 19.628 32.0512 16.0638 34.5909C12.5052 37.1267 9.91225 40.5337 7.75963 44.0141L8.26992 44.3297ZM30.1244 30.9968C41.5517 30.9968 48.6147 37.5823 52.22 45.2158L52.7625 44.9596C49.0814 37.1653 41.8336 30.3968 30.1244 30.3968V30.9968ZM52.7512 45.2375C57.0101 37.8451 64.0749 30.9968 76.4234 30.9968V30.3968C63.7937 30.3968 56.5593 37.4257 52.2313 44.938L52.7512 45.2375ZM76.4234 30.9968C84.2122 30.9968 90.4996 33.75 94.8424 38.5545C99.1883 43.3623 101.611 50.2519 101.611 58.5648H102.211C102.211 50.1377 99.7539 43.0933 95.2875 38.1521C90.8181 33.2075 84.3615 30.3968 76.4234 30.3968V30.9968ZM101.611 58.5648V98.9999H102.211V58.5648H101.611ZM101.911 98.6999H95.5334V99.2999H101.911V98.6999ZM95.8334 98.9999V59.3468H95.2334V98.9999H95.8334ZM95.8334 59.3468C95.8334 52.1092 93.9696 46.3428 90.5287 42.3816C87.0829 38.4149 82.086 36.2937 75.8985 36.2937V36.8937C81.941 36.8937 86.7615 38.9598 90.0757 42.7751C93.3947 46.5959 95.2334 52.2062 95.2334 59.3468H95.8334ZM75.8985 36.2937C64.5367 36.2937 54.6583 45.0663 54.6583 60.1444H55.2583C55.2583 45.3708 64.8943 36.8937 75.8985 36.8937V36.2937ZM54.6583 60.1444V98.9999H55.2583V60.1444H54.6583ZM54.9583 98.6999H48.5822V99.2999H54.9583V98.6999ZM48.8822 98.9999V58.9553H48.2822V98.9999H48.8822ZM48.8822 58.9553C48.8822 51.9692 46.9823 46.3021 43.5585 42.3769C40.1308 38.4473 35.2012 36.2937 29.2093 36.2937V36.8937C35.0486 36.8937 39.8055 38.9871 43.1064 42.7713C46.4112 46.5602 48.2822 52.0738 48.2822 58.9553H48.8822ZM29.2093 36.2937C17.178 36.2937 7.71477 46.9276 7.71477 60.532H8.31477C8.31477 47.1901 17.5743 36.8937 29.2093 36.8937V36.2937ZM7.71477 60.532V98.9999H8.31477V60.532H7.71477ZM8.01477 98.6999H1.64062V99.2999H8.01477V98.6999ZM1.94063 98.9999V32.2696H1.34062V98.9999H1.94063Z" fill="#004B87" mask="url(#path-1-outside-1_2021_20056)"/>
<mask id="path-3-outside-2_2021_20056" maskUnits="userSpaceOnUse" x="112.099" y="29.6968" width="60" height="70" fill="black">
<rect fill="white" x="112.099" y="29.6968" width="60" height="70"/>
<path fill-rule="evenodd" clip-rule="evenodd" d="M113.099 71.524V30.6968H119.654V70.3483C119.654 84.0775 127.547 93.1079 141.329 93.1079C154.705 93.1079 165.01 83.1665 165.01 69.3015V30.6968H171.569V97.4375H165.01V84.9964C160.463 92.8462 152.834 98.9999 140.391 98.9999C123.129 98.9999 113.099 87.4931 113.099 71.524Z"/>
</mask>
<path fill-rule="evenodd" clip-rule="evenodd" d="M113.099 71.524V30.6968H119.654V70.3483C119.654 84.0775 127.547 93.1079 141.329 93.1079C154.705 93.1079 165.01 83.1665 165.01 69.3015V30.6968H171.569V97.4375H165.01V84.9964C160.463 92.8462 152.834 98.9999 140.391 98.9999C123.129 98.9999 113.099 87.4931 113.099 71.524Z" fill="#004B87"/>
<path d="M112.799 71.524C112.799 71.6897 112.933 71.824 113.099 71.824C113.264 71.824 113.399 71.6897 113.399 71.524H112.799ZM113.099 30.6968V30.3968C112.933 30.3968 112.799 30.5311 112.799 30.6968H113.099ZM119.654 30.6968H119.954C119.954 30.5311 119.82 30.3968 119.654 30.3968V30.6968ZM165.01 30.6968V30.3968C164.844 30.3968 164.71 30.5311 164.71 30.6968H165.01ZM171.569 30.6968H171.869C171.869 30.5311 171.734 30.3968 171.569 30.3968V30.6968ZM171.569 97.4375V97.7375C171.734 97.7375 171.869 97.6032 171.869 97.4375H171.569ZM165.01 97.4375H164.71C164.71 97.6032 164.844 97.7375 165.01 97.7375V97.4375ZM165.01 84.9964H165.31C165.31 84.8607 165.219 84.7419 165.088 84.7067C164.957 84.6714 164.818 84.7286 164.75 84.846L165.01 84.9964ZM113.399 71.524C113.399 71.3583 113.264 71.224 113.099 71.224C112.933 71.224 112.799 71.3583 112.799 71.524H113.399ZM113.399 71.524V30.6968H112.799V71.524H113.399ZM113.099 30.9968H119.654V30.3968H113.099V30.9968ZM119.354 30.6968V70.3483H119.954V30.6968H119.354ZM119.354 70.3483C119.354 77.2691 121.344 83.0388 125.104 87.0809C128.866 91.126 134.37 93.4079 141.329 93.4079V92.8079C134.506 92.8079 129.173 90.5747 125.543 86.6723C121.911 82.7669 119.954 77.1567 119.954 70.3483H119.354ZM141.329 93.4079C154.868 93.4079 165.31 83.3341 165.31 69.3015H164.71C164.71 82.9988 154.541 92.8079 141.329 92.8079V93.4079ZM165.31 69.3015V30.6968H164.71V69.3015H165.31ZM165.01 30.9968H171.569V30.3968H165.01V30.9968ZM171.269 30.6968V97.4375H171.869V30.6968H171.269ZM171.569 97.1375H165.01V97.7375H171.569V97.1375ZM165.31 97.4375V84.9964H164.71V97.4375H165.31ZM164.75 84.846C160.249 92.618 152.711 98.6999 140.391 98.6999V99.2999C152.957 99.2999 160.678 93.0745 165.269 85.1467L164.75 84.846ZM140.391 98.6999C131.829 98.6999 125.089 95.8482 120.488 91.0429C115.886 86.2357 113.399 79.4459 113.399 71.524H112.799C112.799 79.5712 115.327 86.5194 120.055 91.4579C124.785 96.3983 131.691 99.2999 140.391 99.2999V98.6999Z" fill="#004B87" mask="url(#path-3-outside-2_2021_20056)"/>
<mask id="path-5-outside-3_2021_20056" maskUnits="userSpaceOnUse" x="181.755" y="29.6968" width="102" height="70" fill="black">
<rect fill="white" x="181.755" y="29.6968" width="102" height="70"/>
<path fill-rule="evenodd" clip-rule="evenodd" d="M182.755 32.2696H189.128V44.1719C193.422 37.241 199.402 30.6968 211.233 30.6968C222.812 30.6968 229.961 37.3738 233.6 45.0877C237.895 37.6354 245.048 30.6968 257.53 30.6968C273.27 30.6968 283.026 41.8248 283.026 58.5648V98.9999H276.645V59.3468C276.645 44.9685 269.238 36.5937 257.015 36.5937C245.832 36.5937 236.076 45.2185 236.076 60.1444V98.9999H229.702V58.9553C229.702 45.0877 222.16 36.5937 210.322 36.5937C198.487 36.5937 189.128 47.0588 189.128 60.532V98.9999H182.755V32.2696Z"/>
</mask>
<path fill-rule="evenodd" clip-rule="evenodd" d="M182.755 32.2696H189.128V44.1719C193.422 37.241 199.402 30.6968 211.233 30.6968C222.812 30.6968 229.961 37.3738 233.6 45.0877C237.895 37.6354 245.048 30.6968 257.53 30.6968C273.27 30.6968 283.026 41.8248 283.026 58.5648V98.9999H276.645V59.3468C276.645 44.9685 269.238 36.5937 257.015 36.5937C245.832 36.5937 236.076 45.2185 236.076 60.1444V98.9999H229.702V58.9553C229.702 45.0877 222.16 36.5937 210.322 36.5937C198.487 36.5937 189.128 47.0588 189.128 60.532V98.9999H182.755V32.2696Z" fill="#004B87"/>
<path d="M182.755 31.9696C182.589 31.9696 182.455 32.1039 182.455 32.2696C182.455 32.4353 182.589 32.5696 182.755 32.5696V31.9696ZM189.128 32.2696H189.428C189.428 32.1039 189.294 31.9696 189.128 31.9696V32.2696ZM189.128 44.1719H188.828C188.828 44.306 188.917 44.4238 189.046 44.4605C189.175 44.4972 189.313 44.4439 189.383 44.3299L189.128 44.1719ZM233.6 45.0877L233.328 45.2157C233.376 45.3167 233.476 45.3829 233.587 45.3875C233.699 45.392 233.804 45.3343 233.86 45.2375L233.6 45.0877ZM283.026 98.9999V99.2999C283.191 99.2999 283.326 99.1656 283.326 98.9999H283.026ZM276.645 98.9999H276.344C276.344 99.1656 276.479 99.2999 276.645 99.2999V98.9999ZM236.076 98.9999V99.2999C236.241 99.2999 236.376 99.1656 236.376 98.9999H236.076ZM229.702 98.9999H229.402C229.402 99.1656 229.536 99.2999 229.702 99.2999V98.9999ZM189.128 98.9999V99.2999C189.294 99.2999 189.428 99.1656 189.428 98.9999H189.128ZM182.755 98.9999H182.455C182.455 99.1656 182.589 99.2999 182.755 99.2999V98.9999ZM183.055 32.2696C183.055 32.1039 182.921 31.9696 182.755 31.9696C182.589 31.9696 182.455 32.1039 182.455 32.2696H183.055ZM182.755 32.5696H189.128V31.9696H182.755V32.5696ZM188.828 32.2696V44.1719H189.428V32.2696H188.828ZM189.383 44.3299C191.521 40.8793 194.064 37.5487 197.528 35.0796C200.987 32.6144 205.378 30.9968 211.233 30.9968V30.3968C205.257 30.3968 200.743 32.0512 197.18 34.591C193.623 37.1267 191.029 40.5336 188.873 44.0139L189.383 44.3299ZM211.233 30.9968C222.671 30.9968 229.728 37.5823 233.328 45.2157L233.871 44.9597C230.195 37.1653 222.953 30.3968 211.233 30.3968V30.9968ZM233.86 45.2375C238.121 37.8451 245.189 30.9968 257.53 30.9968V30.3968C244.907 30.3968 237.67 37.4257 233.34 44.9379L233.86 45.2375ZM257.53 30.9968C265.325 30.9968 271.615 33.7501 275.958 38.5545C280.304 43.3622 282.726 50.2519 282.726 58.5648H283.326C283.326 50.1377 280.87 43.0933 276.403 38.1521C271.933 33.2075 265.475 30.3968 257.53 30.3968V30.9968ZM282.726 58.5648V98.9999H283.326V58.5648H282.726ZM283.026 98.6999H276.645V99.2999H283.026V98.6999ZM276.944 98.9999V59.3468H276.344V98.9999H276.944ZM276.944 59.3468C276.944 52.1092 275.08 46.3428 271.64 42.3817C268.195 38.415 263.199 36.2937 257.015 36.2937V36.8937C263.054 36.8937 267.873 38.9598 271.187 42.7751C274.506 46.5959 276.344 52.2062 276.344 59.3468H276.944ZM257.015 36.2937C245.653 36.2937 235.776 45.0663 235.776 60.1444H236.376C236.376 45.3708 246.011 36.8937 257.015 36.8937V36.2937ZM235.776 60.1444V98.9999H236.376V60.1444H235.776ZM236.076 98.6999H229.702V99.2999H236.076V98.6999ZM230.002 98.9999V58.9553H229.402V98.9999H230.002ZM230.002 58.9553C230.002 51.9692 228.102 46.302 224.677 42.3769C221.249 38.4472 216.317 36.2937 210.322 36.2937V36.8937C216.165 36.8937 220.923 38.9871 224.225 42.7714C227.531 46.5602 229.402 52.0738 229.402 58.9553H230.002ZM210.322 36.2937C198.289 36.2937 188.828 46.9276 188.828 60.532H189.428C189.428 47.19 198.685 36.8937 210.322 36.8937V36.2937ZM188.828 60.532V98.9999H189.428V60.532H188.828ZM189.128 98.6999H182.755V99.2999H189.128V98.6999ZM183.055 98.9999V32.2696H182.455V98.9999H183.055Z" fill="#004B87" mask="url(#path-5-outside-3_2021_20056)"/>
<mask id="path-7-outside-4_2021_20056" maskUnits="userSpaceOnUse" x="293.22" y="29.6968" width="61" height="70" fill="black">
<rect fill="white" x="293.22" y="29.6968" width="61" height="70"/>
<path fill-rule="evenodd" clip-rule="evenodd" d="M294.22 95.2455L343.437 36.5849H296.09V30.6968H353.203V34.4453L303.986 93.1009H353.203V98.9999H294.22V95.2455Z"/>
</mask>
<path fill-rule="evenodd" clip-rule="evenodd" d="M294.22 95.2455L343.437 36.5849H296.09V30.6968H353.203V34.4453L303.986 93.1009H353.203V98.9999H294.22V95.2455Z" fill="#004B87"/>
<path d="M293.99 95.0527C293.883 95.1796 293.9 95.3688 294.027 95.4753C294.154 95.5818 294.343 95.5652 294.45 95.4383L293.99 95.0527ZM343.437 36.5849L343.667 36.7777C343.742 36.6884 343.759 36.5637 343.709 36.4581C343.66 36.3524 343.554 36.2849 343.437 36.2849V36.5849ZM296.09 36.5849H295.79C295.79 36.7505 295.924 36.8849 296.09 36.8849V36.5849ZM296.09 30.6968V30.3968C295.924 30.3968 295.79 30.5311 295.79 30.6968H296.09ZM353.203 30.6968H353.503C353.503 30.5311 353.368 30.3968 353.203 30.3968V30.6968ZM353.203 34.4453L353.432 34.6381C353.478 34.5841 353.503 34.5158 353.503 34.4453H353.203ZM303.986 93.1009L303.756 92.9081C303.681 92.9974 303.665 93.1221 303.714 93.2277C303.763 93.3334 303.869 93.4009 303.986 93.4009V93.1009ZM353.203 93.1009H353.503C353.503 92.9352 353.368 92.8009 353.203 92.8009V93.1009ZM353.203 98.9999V99.2999C353.368 99.2999 353.503 99.1656 353.503 98.9999H353.203ZM294.22 98.9999H293.92C293.92 99.1656 294.054 99.2999 294.22 99.2999V98.9999ZM294.52 95.2455C294.52 95.0798 294.385 94.9455 294.22 94.9455C294.054 94.9455 293.92 95.0798 293.92 95.2455H294.52ZM294.45 95.4383L343.667 36.7777L343.208 36.392L293.99 95.0527L294.45 95.4383ZM343.437 36.2849H296.09V36.8849H343.437V36.2849ZM296.39 36.5849V30.6968H295.79V36.5849H296.39ZM296.09 30.9968H353.203V30.3968H296.09V30.9968ZM352.903 30.6968V34.4453H353.503V30.6968H352.903ZM352.973 34.2524L303.756 92.9081L304.216 93.2938L353.432 34.6381L352.973 34.2524ZM303.986 93.4009H353.203V92.8009H303.986V93.4009ZM352.903 93.1009V98.9999H353.503V93.1009H352.903ZM353.203 98.6999H294.22V99.2999H353.203V98.6999ZM294.52 98.9999V95.2455H293.92V98.9999H294.52Z" fill="#004B87" mask="url(#path-7-outside-4_2021_20056)"/>
<mask id="path-9-outside-5_2021_20056" maskUnits="userSpaceOnUse" x="363.396" y="29.6968" width="102" height="70" fill="black">
<rect fill="white" x="363.396" y="29.6968" width="102" height="70"/>
<path fill-rule="evenodd" clip-rule="evenodd" d="M364.396 30.9606H371.622L391.864 90.2659L412.1 30.6968H417.231L437.462 90.2659L457.705 30.9606H464.667L440.092 98.9999H434.581L414.596 41.1527L394.491 98.9999H388.966L364.396 30.9606Z"/>
</mask>
<path fill-rule="evenodd" clip-rule="evenodd" d="M364.396 30.9606H371.622L391.864 90.2659L412.1 30.6968H417.231L437.462 90.2659L457.705 30.9606H464.667L440.092 98.9999H434.581L414.596 41.1527L394.491 98.9999H388.966L364.396 30.9606Z" fill="#004B87"/>
<path d="M364.396 30.6606C364.231 30.6606 364.096 30.7949 364.096 30.9606C364.096 31.1262 364.231 31.2606 364.396 31.2606V30.6606ZM371.622 30.9606L371.906 30.8636C371.864 30.7422 371.75 30.6606 371.622 30.6606V30.9606ZM391.864 90.2659L391.58 90.3628C391.622 90.4844 391.736 90.566 391.865 90.5659C391.993 90.5658 392.107 90.484 392.148 90.3624L391.864 90.2659ZM412.1 30.6968V30.3968C411.972 30.3968 411.857 30.4786 411.816 30.6003L412.1 30.6968ZM417.231 30.6968L417.515 30.6003C417.474 30.4786 417.36 30.3968 417.231 30.3968V30.6968ZM437.462 90.2659L437.178 90.3624C437.219 90.484 437.334 90.5658 437.462 90.5659C437.59 90.566 437.705 90.4844 437.746 90.3628L437.462 90.2659ZM457.705 30.9606V30.6606C457.577 30.6606 457.462 30.7422 457.421 30.8636L457.705 30.9606ZM464.667 30.9606L464.949 31.0625C464.983 30.9705 464.969 30.8682 464.913 30.7882C464.857 30.7082 464.765 30.6606 464.667 30.6606V30.9606ZM440.092 98.9999V99.2999C440.218 99.2999 440.331 99.2207 440.374 99.1018L440.092 98.9999ZM434.581 98.9999L434.297 99.0979C434.339 99.2188 434.453 99.2999 434.581 99.2999V98.9999ZM414.596 41.1527L414.88 41.0547C414.838 40.9339 414.724 40.8528 414.596 40.8527C414.469 40.8526 414.355 40.9335 414.313 41.0542L414.596 41.1527ZM394.491 98.9999V99.2999C394.618 99.2999 394.732 99.2191 394.774 99.0984L394.491 98.9999ZM388.966 98.9999L388.684 99.1018C388.727 99.2207 388.84 99.2999 388.966 99.2999V98.9999ZM364.679 30.8587C364.622 30.7028 364.45 30.6221 364.295 30.6784C364.139 30.7347 364.058 30.9066 364.114 31.0624L364.679 30.8587ZM364.396 31.2606H371.622V30.6606H364.396V31.2606ZM371.338 31.0575L391.58 90.3628L392.148 90.169L371.906 30.8636L371.338 31.0575ZM392.148 90.3624L412.384 30.7933L411.816 30.6003L391.58 90.1694L392.148 90.3624ZM412.1 30.9968H417.231V30.3968H412.1V30.9968ZM416.947 30.7933L437.178 90.3624L437.746 90.1694L417.515 30.6003L416.947 30.7933ZM437.746 90.3628L457.989 31.0575L457.421 30.8636L437.178 90.169L437.746 90.3628ZM457.705 31.2606H464.667V30.6606H457.705V31.2606ZM464.385 30.8586L439.809 98.898L440.374 99.1018L464.949 31.0625L464.385 30.8586ZM440.092 98.6999H434.581V99.2999H440.092V98.6999ZM434.864 98.902L414.88 41.0547L414.313 41.2506L434.297 99.0979L434.864 98.902ZM414.313 41.0542L394.207 98.9014L394.774 99.0984L414.879 41.2512L414.313 41.0542ZM394.491 98.6999H388.966V99.2999H394.491V98.6999ZM389.248 98.898L364.679 30.8587L364.114 31.0624L388.684 99.1018L389.248 98.898Z" fill="#004B87" mask="url(#path-9-outside-5_2021_20056)"/>
<path d="M476.797 79.9281C486.957 98.2312 512.252 103.176 530.27 95.5578C550.243 87.127 558.124 64.4602 550.542 44.2785C546.738 34.1584 536.69 24.5016 526.828 20.4374C520.469 17.8215 508.818 17.6908 505.24 25.278C501.18 33.8863 513.904 40.1801 520.134 41.491C531.045 43.7889 542.619 42.0333 553.395 39.9041C556.944 39.2038 556.009 35.9013 552.511 36.5948C541.476 38.7649 517.623 43.4817 511.272 29.9703C508.909 24.922 513.765 22.0447 518.272 22.4865C523.952 23.0483 529.074 26.9819 533.25 30.6569C539.865 36.4778 544.72 43.1822 546.574 51.97C550.254 69.3486 543.33 87.4099 526.019 93.495C510.644 98.9052 490.389 92.5967 482.242 77.7414C474.128 62.966 481.415 42.4088 495.169 33.9936C498.488 31.9756 493.584 30.6677 491.521 31.9161C476.345 41.2013 467.657 63.4761 476.797 79.9281Z" fill="#C30045" stroke="#C30045" stroke-width="0.3"/>
<path fill-rule="evenodd" clip-rule="evenodd" d="M526.141 57.471C526.18 55.8222 524.878 54.4246 523.235 54.4536C521.401 54.4817 520.282 55.5077 520.245 57.3522C520.206 59.2122 521.324 60.2509 523.12 60.386C524.719 60.5011 526.109 59.0871 526.141 57.471ZM505.495 60.3923C507.13 60.4114 508.506 59.0829 508.452 57.426C508.39 55.574 507.376 54.4824 505.544 54.4534C503.687 54.4343 502.692 55.574 502.563 57.3752C502.443 58.9668 503.895 60.376 505.495 60.3923Z" fill="#C30045"/>
<path d="M526.141 57.471L525.991 57.4674L525.991 57.468L526.141 57.471ZM523.235 54.4536L523.237 54.6036L523.237 54.6035L523.235 54.4536ZM520.245 57.3522L520.395 57.3553V57.3553L520.245 57.3522ZM523.12 60.386L523.109 60.5355L523.109 60.5356L523.12 60.386ZM508.452 57.426L508.602 57.4212L508.602 57.4209L508.452 57.426ZM505.544 54.4534L505.546 54.3034L505.545 54.3034L505.544 54.4534ZM502.563 57.3752L502.712 57.3865L502.712 57.386L502.563 57.3752ZM526.291 57.4746C526.332 55.7466 524.966 54.273 523.232 54.3036L523.237 54.6035C524.789 54.5762 526.029 55.8979 525.991 57.4674L526.291 57.4746ZM523.232 54.3036C522.288 54.318 521.51 54.5899 520.962 55.1133C520.414 55.6375 520.114 56.3967 520.095 57.3492L520.395 57.3553C520.413 56.4632 520.691 55.7872 521.17 55.3302C521.649 54.8724 522.347 54.6172 523.237 54.6036L523.232 54.3036ZM520.095 57.3491C520.075 58.3108 520.354 59.0774 520.887 59.6209C521.418 60.1629 522.185 60.4661 523.109 60.5355L523.131 60.2364C522.258 60.1708 521.568 59.8871 521.101 59.4109C520.636 58.9363 520.376 58.2536 520.395 57.3553L520.095 57.3491ZM523.109 60.5356C524.804 60.6576 526.257 59.1652 526.291 57.474L525.991 57.468C525.96 59.009 524.633 60.3445 523.131 60.2363L523.109 60.5356ZM505.493 60.5423C507.209 60.5623 508.659 59.1678 508.602 57.4212L508.303 57.4309C508.353 58.9981 507.051 60.2604 505.496 60.2423L505.493 60.5423ZM508.602 57.4209C508.57 56.4695 508.293 55.694 507.77 55.1519C507.245 54.6087 506.492 54.3184 505.546 54.3034L505.541 54.6033C506.428 54.6174 507.097 54.8874 507.554 55.3602C508.011 55.8342 508.272 56.5305 508.303 57.4311L508.602 57.4209ZM505.545 54.3034C504.585 54.2935 503.829 54.5843 503.298 55.1268C502.77 55.667 502.48 56.44 502.413 57.3644L502.712 57.386C502.775 56.5092 503.048 55.8117 503.513 55.3366C503.976 54.8637 504.646 54.5942 505.542 54.6034L505.545 54.3034ZM502.413 57.3639C502.286 59.0528 503.818 60.5252 505.493 60.5423L505.496 60.2423C503.972 60.2268 502.6 58.8808 502.712 57.3865L502.413 57.3639Z" fill="#C30045"/>
<path fill-rule="evenodd" clip-rule="evenodd" d="M515.914 84.1502C514.94 84.1502 514.263 84.0755 513.966 84.0402C497.89 83.952 488.45 67.535 488.056 66.8294C487.554 65.9338 487.843 64.785 488.702 64.2599C489.551 63.7276 490.674 64.0285 491.181 64.9241C491.262 65.0777 500.037 80.2815 514.093 80.2815L514.367 80.3033C514.94 80.3978 528.505 82.2481 537.476 64.3803C537.944 63.4526 539.033 63.0966 539.927 63.574C540.808 64.0617 541.151 65.1991 540.688 66.1248C532.522 82.3882 520.683 84.1502 515.914 84.1502Z" fill="#C30045"/>
<path d="M515.914 84.1502C514.94 84.1502 514.263 84.0755 513.966 84.0402C497.89 83.952 488.45 67.535 488.056 66.8294C487.554 65.9338 487.843 64.785 488.702 64.2599C489.551 63.7276 490.674 64.0285 491.181 64.9241C491.262 65.0777 500.037 80.2815 514.093 80.2815L514.367 80.3033C514.94 80.3978 528.505 82.2481 537.476 64.3803C537.944 63.4526 539.033 63.0966 539.927 63.574C540.808 64.0617 541.151 65.1991 540.688 66.1248C532.522 82.3882 520.683 84.1502 515.914 84.1502" stroke="#C30045" stroke-width="0.3"/>
<mask id="path-16-outside-6_2021_20056" maskUnits="userSpaceOnUse" x="565.828" y="29.6968" width="37" height="70" fill="black">
<rect fill="white" x="565.828" y="29.6968" width="37" height="70"/>
<path fill-rule="evenodd" clip-rule="evenodd" d="M566.828 31.7733H573.135V50.8862C578.279 38.8914 589.214 30.1887 602.218 30.7198V37.8351H601.578C586.385 37.8351 573.135 49.5711 573.135 71.4499V98.9999H566.828V31.7733Z"/>
</mask>
<path fill-rule="evenodd" clip-rule="evenodd" d="M566.828 31.7733H573.135V50.8862C578.279 38.8914 589.214 30.1887 602.218 30.7198V37.8351H601.578C586.385 37.8351 573.135 49.5711 573.135 71.4499V98.9999H566.828V31.7733Z" fill="#004B87"/>
<path d="M566.828 31.4733C566.662 31.4733 566.528 31.6076 566.528 31.7733C566.528 31.9389 566.662 32.0733 566.828 32.0733V31.4733ZM573.135 31.7733H573.435C573.435 31.6076 573.301 31.4733 573.135 31.4733V31.7733ZM573.135 50.8862H572.835C572.835 51.0286 572.935 51.1514 573.075 51.18C573.214 51.2087 573.355 51.1353 573.411 51.0044L573.135 50.8862ZM602.218 30.7198H602.518C602.518 30.5589 602.391 30.4266 602.23 30.4201L602.218 30.7198ZM602.218 37.8351V38.1351C602.384 38.1351 602.518 38.0008 602.518 37.8351H602.218ZM573.135 98.9999V99.2999C573.301 99.2999 573.435 99.1656 573.435 98.9999H573.135ZM566.828 98.9999H566.528C566.528 99.1656 566.662 99.2999 566.828 99.2999V98.9999ZM567.128 31.7733C567.128 31.6076 566.994 31.4733 566.828 31.4733C566.662 31.4733 566.528 31.6076 566.528 31.7733H567.128ZM566.828 32.0733H573.135V31.4733H566.828V32.0733ZM572.835 31.7733V50.8862H573.435V31.7733H572.835ZM573.411 51.0044C578.518 39.0949 589.355 30.4947 602.206 31.0196L602.23 30.4201C589.073 29.8827 578.039 38.688 572.859 50.7679L573.411 51.0044ZM601.918 30.7198V37.8351H602.518V30.7198H601.918ZM602.218 37.5351H601.578V38.1351H602.218V37.5351ZM601.578 37.5351C593.902 37.5351 586.709 40.501 581.438 46.2349C576.167 51.9686 572.835 60.4492 572.835 71.4499H573.435C573.435 60.5717 576.728 52.245 581.88 46.641C587.032 41.0372 594.061 38.1351 601.578 38.1351V37.5351ZM572.835 71.4499V98.9999H573.435V71.4499H572.835ZM573.135 98.6999H566.828V99.2999H573.135V98.6999ZM567.128 98.9999V31.7733H566.528V98.9999H567.128Z" fill="#004B87" mask="url(#path-16-outside-6_2021_20056)"/>
<path d="M613.258 99.0002C613.258 99.0831 613.325 99.1502 613.408 99.1502H619.307C619.389 99.1502 619.457 99.0831 619.457 99.0002V1C619.457 0.917157 619.389 0.85 619.307 0.85H613.408C613.325 0.85 613.258 0.917157 613.258 1V99.0002Z" fill="#004B87" stroke="#004B87" stroke-width="0.3" stroke-linecap="round" stroke-linejoin="round"/>
<mask id="path-19-outside-7_2021_20056" maskUnits="userSpaceOnUse" x="629.499" y="0" width="70" height="100" fill="black">
<rect fill="white" x="629.499" width="70" height="100"/>
<path fill-rule="evenodd" clip-rule="evenodd" d="M692.432 63.4915V63.2235C692.432 45.5379 678.417 33.6655 663.863 33.6655C648.618 33.6655 636.398 44.5969 636.398 63.0925V63.3615C636.398 81.4502 649.169 93.0596 663.863 93.0596C678.417 93.0596 692.432 81.0541 692.432 63.4915ZM630.499 63.9968V63.7336C630.499 41.8111 647.218 28.465 663.676 28.465C677.32 28.465 686.15 36.1277 691.77 44.5858V1H698.329V97.4231H691.77V82.3502C685.892 91.2055 677.188 99.0002 663.676 99.0002C647.218 99.0002 630.499 85.9183 630.499 63.9968Z"/>
</mask>
<path fill-rule="evenodd" clip-rule="evenodd" d="M692.432 63.4915V63.2235C692.432 45.5379 678.417 33.6655 663.863 33.6655C648.618 33.6655 636.398 44.5969 636.398 63.0925V63.3615C636.398 81.4502 649.169 93.0596 663.863 93.0596C678.417 93.0596 692.432 81.0541 692.432 63.4915ZM630.499 63.9968V63.7336C630.499 41.8111 647.218 28.465 663.676 28.465C677.32 28.465 686.15 36.1277 691.77 44.5858V1H698.329V97.4231H691.77V82.3502C685.892 91.2055 677.188 99.0002 663.676 99.0002C647.218 99.0002 630.499 85.9183 630.499 63.9968Z" fill="#004B87"/>
<path d="M691.77 44.5858L691.52 44.7518C691.594 44.862 691.73 44.9112 691.857 44.873C691.984 44.8347 692.07 44.718 692.07 44.5858H691.77ZM691.77 1V0.7C691.605 0.7 691.47 0.834315 691.47 1H691.77ZM698.329 1H698.629C698.629 0.834315 698.495 0.7 698.329 0.7V1ZM698.329 97.4231V97.7231C698.495 97.7231 698.629 97.5888 698.629 97.4231H698.329ZM691.77 97.4231H691.47C691.47 97.5888 691.605 97.7231 691.77 97.7231V97.4231ZM691.77 82.3502H692.07C692.07 82.2179 691.984 82.1012 691.857 82.063C691.73 82.0247 691.593 82.074 691.52 82.1843L691.77 82.3502ZM692.732 63.4915V63.2235H692.132V63.4915H692.732ZM692.732 63.2235C692.732 45.3645 678.575 33.3655 663.863 33.3655V33.9655C678.259 33.9655 692.132 45.7113 692.132 63.2235H692.732ZM663.863 33.3655C656.167 33.3655 649.222 36.1255 644.2 41.2328C639.177 46.3409 636.098 53.7766 636.098 63.0925H636.698C636.698 53.9128 639.729 46.635 644.628 41.6535C649.527 36.6712 656.313 33.9655 663.863 33.9655V33.3655ZM636.098 63.0925V63.3615H636.698V63.0925H636.098ZM636.098 63.3615C636.098 81.6084 648.995 93.3596 663.863 93.3596V92.7596C649.342 92.7596 636.698 81.292 636.698 63.3615H636.098ZM663.863 93.3596C678.576 93.3596 692.732 81.2266 692.732 63.4915H692.132C692.132 80.8817 678.258 92.7596 663.863 92.7596V93.3596ZM630.799 63.9968V63.7336H630.199V63.9968H630.799ZM630.799 63.7336C630.799 41.9841 647.376 28.765 663.676 28.765V28.165C647.06 28.165 630.199 41.6381 630.199 63.7336H630.799ZM663.676 28.765C677.186 28.765 685.934 36.3449 691.52 44.7518L692.02 44.4197C686.366 35.9105 677.455 28.165 663.676 28.165V28.765ZM692.07 44.5858V1H691.47V44.5858H692.07ZM691.77 1.3H698.329V0.7H691.77V1.3ZM698.029 1V97.4231H698.629V1H698.029ZM698.329 97.1231H691.77V97.7231H698.329V97.1231ZM692.07 97.4231V82.3502H691.47V97.4231H692.07ZM691.52 82.1843C685.672 90.9944 677.048 98.7002 663.676 98.7002V99.3002C677.327 99.3002 686.112 91.4165 692.02 82.5161L691.52 82.1843ZM663.676 98.7002C647.373 98.7002 630.799 85.7423 630.799 63.9968H630.199C630.199 86.0944 647.063 99.3002 663.676 99.3002V98.7002Z" fill="#004B87" mask="url(#path-19-outside-7_2021_20056)"/>
<path d="M20.8477 132.649V129.133H17.8599L18.7663 123.826H15.1742L14.3013 129.133H8.79566L9.70209 123.826H6.10997L5.20354 129.133H1.24214V132.649H4.59926L3.62569 138.531H0V142.047H3.02141L2.08142 147.489H5.67354L6.57996 142.047H12.0856L11.1457 147.489H14.7378L15.6778 142.047H19.6392V138.531H16.2821L17.2556 132.649H20.8477ZM13.6971 132.649L12.6899 138.531H7.18425L8.19138 132.649H13.6971Z" fill="#C30045"/>
<path d="M21.6712 125.685L22.544 129.066L26.774 127.882V147.489H30.8697V123.657H27.9826L21.6712 125.685Z" fill="#C30045"/>
<path d="M58.6652 132.412C58.1952 131.466 57.5126 130.711 56.6174 130.147C55.7445 129.561 54.6702 129.268 53.3945 129.268C52.7231 129.268 52.1076 129.358 51.5481 129.539C51.011 129.697 50.5186 129.922 50.071 130.215C49.6457 130.508 49.2653 130.835 48.9296 131.195C48.5938 131.556 48.2805 131.939 47.9896 132.345V129.64H43.9274V147.489H47.9896V137.449C47.9896 136.052 48.3365 134.959 49.0303 134.17C49.7241 133.381 50.6417 132.987 51.7831 132.987C52.9245 132.987 53.8086 133.359 54.4352 134.102C55.0619 134.846 55.3752 135.917 55.3752 137.314V147.489H59.4373V137.415C59.4373 135.973 59.7842 134.88 60.4781 134.136C61.1942 133.37 62.1119 132.987 63.2309 132.987C64.3723 132.987 65.2564 133.359 65.883 134.102C66.5097 134.846 66.823 135.928 66.823 137.348V147.489H70.8851V136.097C70.8851 133.911 70.3368 132.232 69.2402 131.06C68.1435 129.866 66.6216 129.268 64.6745 129.268C63.3316 129.268 62.1678 129.561 61.183 130.147C60.2207 130.711 59.3814 131.466 58.6652 132.412Z" fill="#C30045"/>
<path d="M92.3549 138.565C92.3549 137.28 92.1199 136.074 91.6499 134.948C91.1799 133.821 90.5197 132.84 89.6692 132.007C88.8411 131.15 87.8452 130.485 86.6814 130.012C85.5399 129.516 84.2866 129.268 82.9214 129.268C81.5562 129.268 80.2916 129.516 79.1278 130.012C77.9864 130.508 76.9905 131.184 76.14 132.04C75.3119 132.874 74.6517 133.866 74.1593 135.015C73.6893 136.142 73.4543 137.348 73.4543 138.632C73.4543 139.917 73.6893 141.123 74.1593 142.25C74.6293 143.354 75.2783 144.334 76.1064 145.191C76.9569 146.024 77.9528 146.689 79.0943 147.185C80.2581 147.658 81.5114 147.895 82.8542 147.895C84.2195 147.895 85.484 147.647 86.6478 147.151C87.8116 146.656 88.8075 145.991 89.6356 145.157C90.4861 144.3 91.1463 143.309 91.6163 142.182C92.1087 141.055 92.3549 139.849 92.3549 138.565ZM88.2928 138.632C88.2928 139.421 88.1697 140.165 87.9235 140.864C87.6773 141.54 87.3192 142.137 86.8492 142.655C86.3792 143.174 85.8085 143.591 85.1371 143.906C84.488 144.199 83.7495 144.345 82.9214 144.345C82.1381 144.345 81.4107 144.199 80.7393 143.906C80.0902 143.591 79.5195 143.174 79.0271 142.655C78.5571 142.137 78.1878 141.528 77.9193 140.83C77.6507 140.109 77.5164 139.354 77.5164 138.565C77.5164 137.776 77.6395 137.044 77.8857 136.367C78.1319 135.669 78.49 135.06 78.96 134.542C79.43 134.024 79.9895 133.618 80.6385 133.325C81.31 133.009 82.0485 132.852 82.8542 132.852C83.66 132.852 84.3873 133.009 85.0364 133.325C85.7078 133.618 86.2785 134.035 86.7485 134.576C87.2409 135.094 87.6214 135.703 87.8899 136.401C88.1585 137.1 88.2928 137.844 88.2928 138.632Z" fill="#C30045"/>
<path d="M99.9944 133.156H104.761V129.64H99.9944V124.738H95.9323V129.64H93.683V133.156H95.9323V142.554C95.9323 143.545 96.0554 144.379 96.3015 145.055C96.5477 145.709 96.8946 146.239 97.3422 146.644C97.8122 147.05 98.3606 147.343 98.9872 147.523C99.6139 147.703 100.297 147.794 101.035 147.794C101.796 147.794 102.467 147.715 103.049 147.557C103.631 147.399 104.18 147.174 104.694 146.881V143.534C103.889 143.94 103.049 144.143 102.177 144.143C101.483 144.143 100.946 143.974 100.565 143.636C100.185 143.275 99.9944 142.7 99.9944 141.912V133.156Z" fill="#C30045"/>
<path d="M111.526 137.415C111.526 136.018 111.895 134.936 112.634 134.17C113.372 133.381 114.335 132.987 115.521 132.987C116.729 132.987 117.658 133.37 118.307 134.136C118.979 134.88 119.314 135.951 119.314 137.348V147.489H123.376V136.131C123.376 134.035 122.828 132.367 121.731 131.128C120.635 129.888 119.079 129.268 117.065 129.268C116.371 129.268 115.745 129.358 115.185 129.539C114.648 129.697 114.144 129.922 113.674 130.215C113.227 130.508 112.824 130.846 112.466 131.229C112.13 131.59 111.817 131.984 111.526 132.412V122.812H107.464V147.489H111.526V137.415Z" fill="#C30045"/>
<path d="M129.971 140.018H142.997C143.02 139.816 143.031 139.624 143.031 139.444C143.053 139.263 143.064 139.083 143.064 138.903C143.064 137.618 142.885 136.39 142.527 135.218C142.169 134.046 141.632 133.021 140.916 132.142C140.222 131.263 139.338 130.564 138.264 130.046C137.212 129.528 135.981 129.268 134.571 129.268C133.295 129.268 132.131 129.516 131.079 130.012C130.027 130.508 129.11 131.184 128.326 132.04C127.566 132.874 126.972 133.855 126.547 134.981C126.122 136.108 125.909 137.314 125.909 138.599C125.909 139.996 126.144 141.269 126.614 142.419C127.084 143.545 127.722 144.515 128.528 145.326C129.356 146.137 130.318 146.768 131.415 147.219C132.534 147.67 133.731 147.895 135.007 147.895C136.641 147.895 138.04 147.591 139.204 146.982C140.39 146.374 141.408 145.562 142.259 144.548L139.875 142.419C139.159 143.117 138.431 143.647 137.693 144.007C136.954 144.368 136.081 144.548 135.074 144.548C133.754 144.548 132.635 144.165 131.717 143.399C130.8 142.61 130.218 141.483 129.971 140.018ZM129.938 137.314C130.117 135.917 130.609 134.79 131.415 133.933C132.243 133.055 133.284 132.615 134.537 132.615C135.209 132.615 135.802 132.739 136.316 132.987C136.854 133.235 137.312 133.573 137.693 134.001C138.073 134.407 138.375 134.903 138.599 135.489C138.823 136.052 138.969 136.66 139.036 137.314H129.938Z" fill="#C30045"/>
<path d="M149.807 140.695C149.807 139.523 149.952 138.497 150.243 137.618C150.534 136.717 150.948 135.973 151.486 135.387C152.023 134.801 152.661 134.362 153.399 134.069C154.138 133.776 154.955 133.629 155.85 133.629H156.085V129.302C154.518 129.235 153.22 129.606 152.191 130.418C151.161 131.229 150.367 132.311 149.807 133.663V129.64H145.745V147.489H149.807V140.695Z" fill="#C30045"/>
<path d="M153.788 150.667L154.224 152.391C155.925 152.256 157.212 151.76 158.085 150.904C158.958 150.047 159.394 148.673 159.394 146.779V142.858H154.929V147.489H156.641C156.798 149.202 155.847 150.261 153.788 150.667Z" fill="#C30045"/>
<path d="M189.811 138.565C189.811 137.077 189.576 135.759 189.106 134.61C188.636 133.46 188.009 132.491 187.226 131.702C186.465 130.891 185.592 130.282 184.607 129.877C183.622 129.471 182.604 129.268 181.552 129.268C180.12 129.268 178.922 129.595 177.96 130.249C176.998 130.88 176.192 131.669 175.543 132.615V122.812H171.481V147.489H175.543V144.717C176.169 145.551 176.964 146.284 177.926 146.915C178.889 147.546 180.097 147.861 181.552 147.861C182.604 147.861 183.622 147.658 184.607 147.253C185.614 146.847 186.498 146.25 187.259 145.461C188.042 144.65 188.658 143.669 189.106 142.52C189.576 141.371 189.811 140.052 189.811 138.565ZM185.681 138.565C185.681 139.444 185.547 140.244 185.278 140.965C185.01 141.664 184.641 142.261 184.171 142.757C183.723 143.252 183.186 143.636 182.559 143.906C181.955 144.176 181.306 144.312 180.612 144.312C179.918 144.312 179.258 144.176 178.631 143.906C178.005 143.636 177.456 143.252 176.986 142.757C176.516 142.238 176.136 141.63 175.845 140.931C175.576 140.233 175.442 139.444 175.442 138.565C175.442 137.686 175.576 136.897 175.845 136.198C176.136 135.5 176.516 134.903 176.986 134.407C177.456 133.888 178.005 133.494 178.631 133.224C179.258 132.953 179.918 132.818 180.612 132.818C181.306 132.818 181.955 132.953 182.559 133.224C183.186 133.494 183.723 133.877 184.171 134.373C184.641 134.869 185.01 135.477 185.278 136.198C185.547 136.897 185.681 137.686 185.681 138.565Z" fill="#C30045"/>
<path d="M207.444 147.489V136.908C207.444 134.519 206.806 132.671 205.53 131.364C204.255 130.035 202.296 129.37 199.655 129.37C198.201 129.37 196.959 129.505 195.929 129.775C194.9 130.046 193.892 130.406 192.908 130.857L194.016 134.136C194.821 133.798 195.616 133.528 196.399 133.325C197.182 133.122 198.078 133.021 199.085 133.021C200.495 133.021 201.569 133.348 202.308 134.001C203.069 134.655 203.449 135.601 203.449 136.841V137.28C202.755 137.055 202.028 136.875 201.267 136.739C200.528 136.604 199.622 136.536 198.548 136.536C197.518 136.536 196.556 136.66 195.66 136.908C194.788 137.134 194.027 137.483 193.378 137.956C192.751 138.43 192.259 139.027 191.901 139.748C191.542 140.469 191.363 141.314 191.363 142.283V142.351C191.363 143.252 191.531 144.053 191.867 144.751C192.225 145.427 192.684 146.002 193.243 146.475C193.825 146.926 194.497 147.264 195.258 147.489C196.019 147.737 196.824 147.861 197.675 147.861C199.018 147.861 200.159 147.613 201.099 147.118C202.039 146.622 202.811 146.013 203.415 145.292V147.489H207.444ZM203.516 141.033C203.516 141.596 203.393 142.114 203.147 142.588C202.923 143.038 202.599 143.433 202.173 143.771C201.748 144.086 201.245 144.334 200.663 144.515C200.103 144.695 199.488 144.785 198.816 144.785C197.854 144.785 197.037 144.56 196.365 144.109C195.716 143.658 195.392 143.005 195.392 142.148V142.081C195.392 141.157 195.75 140.447 196.466 139.951C197.182 139.455 198.178 139.207 199.454 139.207C200.237 139.207 200.976 139.275 201.67 139.41C202.386 139.545 203.001 139.714 203.516 139.917V141.033Z" fill="#C30045"/>
<path d="M229.206 138.565C229.206 137.077 228.971 135.759 228.501 134.61C228.031 133.46 227.405 132.491 226.621 131.702C225.861 130.891 224.988 130.282 224.003 129.877C223.018 129.471 222 129.268 220.948 129.268C219.516 129.268 218.318 129.595 217.356 130.249C216.393 130.88 215.588 131.669 214.939 132.615V122.812H210.877V147.489H214.939V144.717C215.565 145.551 216.36 146.284 217.322 146.915C218.285 147.546 219.493 147.861 220.948 147.861C222 147.861 223.018 147.658 224.003 147.253C225.01 146.847 225.894 146.25 226.655 145.461C227.438 144.65 228.054 143.669 228.501 142.52C228.971 141.371 229.206 140.052 229.206 138.565ZM225.077 138.565C225.077 139.444 224.943 140.244 224.674 140.965C224.406 141.664 224.036 142.261 223.566 142.757C223.119 143.252 222.582 143.636 221.955 143.906C221.351 144.176 220.702 144.312 220.008 144.312C219.314 144.312 218.654 144.176 218.027 143.906C217.401 143.636 216.852 143.252 216.382 142.757C215.912 142.238 215.532 141.63 215.241 140.931C214.972 140.233 214.838 139.444 214.838 138.565C214.838 137.686 214.972 136.897 215.241 136.198C215.532 135.5 215.912 134.903 216.382 134.407C216.852 133.888 217.401 133.494 218.027 133.224C218.654 132.953 219.314 132.818 220.008 132.818C220.702 132.818 221.351 132.953 221.955 133.224C222.582 133.494 223.119 133.877 223.566 134.373C224.036 134.869 224.406 135.477 224.674 136.198C224.943 136.897 225.077 137.686 225.077 138.565Z" fill="#C30045"/>
<path d="M247.633 129.64H243.403L238.803 142.892L233.768 129.64H229.437L236.823 147.489C236.487 148.278 236.129 148.819 235.748 149.112C235.368 149.405 234.887 149.552 234.305 149.552C233.88 149.552 233.465 149.484 233.063 149.349C232.682 149.236 232.302 149.078 231.921 148.875L230.545 151.918C231.171 152.256 231.809 152.515 232.458 152.695C233.13 152.898 233.891 153 234.741 153C235.457 153 236.095 152.91 236.655 152.729C237.214 152.549 237.729 152.256 238.199 151.85C238.669 151.467 239.094 150.96 239.475 150.329C239.855 149.698 240.224 148.92 240.583 147.996L247.633 129.64Z" fill="#C30045"/>
<path d="M278.188 145.765L274.495 141.979C275.1 141.145 275.659 140.278 276.174 139.376C276.711 138.452 277.215 137.517 277.685 136.57L274.562 134.914C274.182 135.748 273.779 136.548 273.354 137.314C272.929 138.08 272.492 138.801 272.045 139.478L268.016 135.353C269.583 134.767 270.836 133.99 271.776 133.021C272.716 132.029 273.186 130.744 273.186 129.167C273.186 128.356 273.029 127.601 272.716 126.902C272.425 126.203 272 125.595 271.44 125.076C270.903 124.558 270.254 124.152 269.493 123.859C268.732 123.567 267.882 123.42 266.942 123.42C265.89 123.42 264.95 123.589 264.122 123.927C263.294 124.243 262.589 124.671 262.007 125.212C261.425 125.753 260.977 126.384 260.664 127.105C260.351 127.826 260.194 128.592 260.194 129.404C260.194 130.282 260.351 131.116 260.664 131.905C260.977 132.671 261.47 133.494 262.141 134.373C260.53 135.072 259.288 135.973 258.415 137.077C257.564 138.159 257.139 139.478 257.139 141.033C257.139 142.069 257.329 143.005 257.71 143.838C258.113 144.672 258.65 145.393 259.321 146.002C260.015 146.588 260.821 147.039 261.738 147.354C262.678 147.67 263.697 147.827 264.793 147.827C266.226 147.827 267.535 147.557 268.721 147.016C269.907 146.453 271.004 145.698 272.011 144.751L275.133 147.963L278.188 145.765ZM269.527 129.404C269.527 130.282 269.214 131.015 268.587 131.601C267.96 132.164 267.043 132.671 265.834 133.122C265.185 132.401 264.726 131.781 264.458 131.263C264.189 130.745 264.055 130.181 264.055 129.573C264.055 128.716 264.301 128.029 264.793 127.51C265.308 126.97 265.991 126.699 266.841 126.699C267.624 126.699 268.262 126.947 268.755 127.443C269.269 127.916 269.527 128.57 269.527 129.404ZM269.661 142.317C268.99 142.971 268.285 143.478 267.546 143.838C266.808 144.199 266.035 144.379 265.23 144.379C264.088 144.379 263.148 144.053 262.41 143.399C261.671 142.745 261.302 141.912 261.302 140.897C261.302 140.109 261.548 139.376 262.04 138.7C262.533 138.001 263.327 137.415 264.424 136.942L269.661 142.317Z" fill="#C30045"/>
<path d="M304.466 144.548L302.016 142.114C301.367 142.768 300.673 143.309 299.934 143.737C299.218 144.143 298.379 144.345 297.416 144.345C296.633 144.345 295.917 144.199 295.268 143.906C294.619 143.591 294.059 143.174 293.589 142.655C293.119 142.137 292.75 141.528 292.482 140.83C292.235 140.131 292.112 139.376 292.112 138.565C292.112 137.776 292.235 137.044 292.482 136.367C292.75 135.669 293.108 135.06 293.556 134.542C294.003 134.024 294.541 133.618 295.167 133.325C295.794 133.009 296.477 132.852 297.215 132.852C298.245 132.852 299.106 133.066 299.8 133.494C300.516 133.9 301.188 134.429 301.814 135.083L304.332 132.345C303.504 131.421 302.531 130.677 301.411 130.113C300.315 129.55 298.927 129.268 297.249 129.268C295.928 129.268 294.697 129.516 293.556 130.012C292.437 130.508 291.463 131.184 290.635 132.04C289.829 132.897 289.192 133.888 288.722 135.015C288.274 136.142 288.05 137.348 288.05 138.632C288.05 139.917 288.274 141.123 288.722 142.25C289.192 143.354 289.829 144.334 290.635 145.191C291.463 146.024 292.437 146.689 293.556 147.185C294.675 147.658 295.895 147.895 297.215 147.895C298.938 147.895 300.36 147.591 301.479 146.982C302.598 146.351 303.594 145.54 304.466 144.548Z" fill="#C30045"/>
<path d="M310.866 137.415C310.866 136.018 311.235 134.936 311.974 134.17C312.712 133.381 313.675 132.987 314.861 132.987C316.069 132.987 316.998 133.37 317.647 134.136C318.319 134.88 318.654 135.951 318.654 137.348V147.489H322.717V136.131C322.717 134.035 322.168 132.367 321.072 131.128C319.975 129.888 318.419 129.268 316.405 129.268C315.711 129.268 315.085 129.358 314.525 129.539C313.988 129.697 313.484 129.922 313.014 130.215C312.567 130.508 312.164 130.846 311.806 131.229C311.47 131.59 311.157 131.984 310.866 132.412V122.812H306.804V147.489H310.866V137.415Z" fill="#C30045"/>
<path d="M330.654 126.902V123.014H326.29V126.902H330.654ZM330.52 147.489V129.64H326.458V147.489H330.52Z" fill="#C30045"/>
<path d="M338.727 147.489V122.812H334.665V147.489H338.727Z" fill="#C30045"/>
<path d="M360.061 147.489V122.812H355.998V132.412C355.349 131.578 354.544 130.846 353.581 130.215C352.619 129.584 351.41 129.268 349.956 129.268C348.904 129.268 347.874 129.471 346.867 129.877C345.882 130.282 345.009 130.891 344.249 131.702C343.488 132.491 342.872 133.46 342.402 134.61C341.954 135.759 341.731 137.077 341.731 138.565C341.731 140.052 341.966 141.371 342.436 142.52C342.906 143.669 343.521 144.65 344.282 145.461C345.043 146.25 345.916 146.847 346.901 147.253C347.885 147.658 348.904 147.861 349.956 147.861C351.388 147.861 352.585 147.534 353.548 146.881C354.533 146.227 355.349 145.439 355.998 144.515V147.489H360.061ZM356.066 138.565C356.066 139.444 355.92 140.233 355.629 140.931C355.361 141.63 354.991 142.238 354.521 142.757C354.051 143.252 353.503 143.636 352.876 143.906C352.25 144.176 351.601 144.312 350.929 144.312C350.235 144.312 349.575 144.176 348.948 143.906C348.344 143.636 347.807 143.252 347.337 142.757C346.867 142.261 346.498 141.664 346.229 140.965C345.961 140.244 345.826 139.444 345.826 138.565C345.826 137.663 345.961 136.863 346.229 136.165C346.498 135.443 346.867 134.835 347.337 134.339C347.807 133.843 348.344 133.471 348.948 133.224C349.575 132.953 350.235 132.818 350.929 132.818C351.601 132.818 352.25 132.953 352.876 133.224C353.503 133.494 354.051 133.888 354.521 134.407C354.991 134.903 355.361 135.5 355.629 136.198C355.92 136.897 356.066 137.686 356.066 138.565Z" fill="#C30045"/>
<path d="M385.051 142.216V142.148C385.051 141.337 384.883 140.649 384.547 140.086C384.211 139.523 383.775 139.049 383.238 138.666C382.723 138.261 382.141 137.922 381.492 137.652C380.843 137.382 380.194 137.145 379.545 136.942C379.03 136.784 378.527 136.627 378.034 136.469C377.564 136.289 377.139 136.108 376.759 135.928C376.401 135.725 376.11 135.511 375.886 135.286C375.662 135.038 375.55 134.756 375.55 134.441V134.373C375.55 133.855 375.763 133.426 376.188 133.088C376.636 132.75 377.251 132.581 378.034 132.581C378.773 132.581 379.579 132.739 380.452 133.055C381.324 133.348 382.186 133.753 383.036 134.272L384.648 131.364C383.708 130.733 382.667 130.237 381.526 129.877C380.384 129.516 379.254 129.336 378.135 129.336C377.262 129.336 376.434 129.46 375.651 129.708C374.89 129.956 374.218 130.316 373.637 130.79C373.077 131.263 372.629 131.838 372.294 132.514C371.98 133.19 371.824 133.945 371.824 134.779V134.846C371.824 135.703 371.992 136.424 372.327 137.01C372.663 137.573 373.088 138.058 373.603 138.463C374.14 138.847 374.733 139.162 375.382 139.41C376.054 139.658 376.714 139.883 377.363 140.086C377.878 140.244 378.37 140.402 378.84 140.559C379.332 140.695 379.758 140.864 380.116 141.066C380.496 141.247 380.787 141.461 380.989 141.709C381.212 141.957 381.324 142.25 381.324 142.588V142.655C381.324 143.241 381.078 143.714 380.586 144.075C380.116 144.413 379.444 144.582 378.572 144.582C377.654 144.582 376.692 144.402 375.684 144.041C374.7 143.658 373.726 143.106 372.764 142.385L370.951 145.157C372.07 146.036 373.278 146.701 374.577 147.151C375.897 147.602 377.195 147.827 378.471 147.827C379.388 147.827 380.25 147.715 381.056 147.489C381.862 147.241 382.555 146.892 383.137 146.441C383.741 145.968 384.211 145.382 384.547 144.684C384.883 143.985 385.051 143.162 385.051 142.216Z" fill="#C30045"/>
<path d="M392.213 126.902V123.014H387.848V126.902H392.213ZM392.078 147.489V129.64H388.016V147.489H392.078Z" fill="#C30045"/>
<path d="M400.89 133.156H405.657V129.64H400.89V124.738H396.828V129.64H394.578V133.156H396.828V142.554C396.828 143.545 396.951 144.379 397.197 145.055C397.443 145.709 397.79 146.239 398.238 146.644C398.708 147.05 399.256 147.343 399.883 147.523C400.509 147.703 401.192 147.794 401.93 147.794C402.691 147.794 403.363 147.715 403.945 147.557C404.527 147.399 405.075 147.174 405.59 146.881V143.534C404.784 143.94 403.945 144.143 403.072 144.143C402.378 144.143 401.841 143.974 401.46 143.636C401.08 143.275 400.89 142.7 400.89 141.912V133.156Z" fill="#C30045"/>
<path d="M410.956 140.018H423.981C424.004 139.816 424.015 139.624 424.015 139.444C424.037 139.263 424.048 139.083 424.048 138.903C424.048 137.618 423.869 136.39 423.511 135.218C423.153 134.046 422.616 133.021 421.9 132.142C421.206 131.263 420.322 130.564 419.248 130.046C418.196 129.528 416.965 129.268 415.555 129.268C414.279 129.268 413.115 129.516 412.064 130.012C411.012 130.508 410.094 131.184 409.311 132.04C408.55 132.874 407.957 133.855 407.531 134.981C407.106 136.108 406.894 137.314 406.894 138.599C406.894 139.996 407.129 141.269 407.599 142.419C408.069 143.545 408.706 144.515 409.512 145.326C410.34 146.137 411.303 146.768 412.399 147.219C413.518 147.67 414.716 147.895 415.991 147.895C417.625 147.895 419.024 147.591 420.188 146.982C421.374 146.374 422.392 145.562 423.243 144.548L420.859 142.419C420.143 143.117 419.416 143.647 418.677 144.007C417.939 144.368 417.066 144.548 416.059 144.548C414.738 144.548 413.619 144.165 412.701 143.399C411.784 142.61 411.202 141.483 410.956 140.018ZM410.922 137.314C411.101 135.917 411.594 134.79 412.399 133.933C413.227 133.055 414.268 132.615 415.521 132.615C416.193 132.615 416.786 132.739 417.301 132.987C417.838 133.235 418.297 133.573 418.677 134.001C419.058 134.407 419.36 134.903 419.584 135.489C419.807 136.052 419.953 136.66 420.02 137.314H410.922Z" fill="#C30045"/>
<path d="M439.827 126.902V123.014H435.462V126.902H439.827ZM439.692 147.489V129.64H435.63V147.489H439.692Z" fill="#C30045"/>
<path d="M447.664 137.415C447.664 136.018 448.034 134.936 448.772 134.17C449.511 133.381 450.473 132.987 451.659 132.987C452.868 132.987 453.797 133.37 454.446 134.136C455.117 134.88 455.453 135.951 455.453 137.348V147.489H459.515V136.131C459.515 134.035 458.967 132.367 457.87 131.128C456.773 129.888 455.218 129.268 453.204 129.268C452.51 129.268 451.883 129.358 451.324 129.539C450.786 129.697 450.283 129.922 449.813 130.215C449.365 130.508 448.962 130.846 448.604 131.229C448.269 131.59 447.955 131.984 447.664 132.412V129.64H443.602V147.489H447.664V137.415Z" fill="#C30045"/>
<path d="M476.589 133.156H481.356V129.64H476.589V124.738H472.527V129.64H470.277V133.156H472.527V142.554C472.527 143.545 472.65 144.379 472.896 145.055C473.142 145.709 473.489 146.239 473.937 146.644C474.407 147.05 474.955 147.343 475.582 147.523C476.208 147.703 476.891 147.794 477.63 147.794C478.391 147.794 479.062 147.715 479.644 147.557C480.226 147.399 480.774 147.174 481.289 146.881V143.534C480.483 143.94 479.644 144.143 478.771 144.143C478.077 144.143 477.54 143.974 477.16 143.636C476.779 143.275 476.589 142.7 476.589 141.912V133.156Z" fill="#C30045"/>
<path d="M488.12 137.415C488.12 136.018 488.49 134.936 489.228 134.17C489.967 133.381 490.929 132.987 492.115 132.987C493.324 132.987 494.253 133.37 494.902 134.136C495.573 134.88 495.909 135.951 495.909 137.348V147.489H499.971V136.131C499.971 134.035 499.423 132.367 498.326 131.128C497.229 129.888 495.674 129.268 493.659 129.268C492.966 129.268 492.339 129.358 491.779 129.539C491.242 129.697 490.739 129.922 490.269 130.215C489.821 130.508 489.418 130.846 489.06 131.229C488.725 131.59 488.411 131.984 488.12 132.412V122.812H484.058V147.489H488.12V137.415Z" fill="#C30045"/>
<path d="M506.566 140.018H519.592C519.614 139.816 519.625 139.624 519.625 139.444C519.648 139.263 519.659 139.083 519.659 138.903C519.659 137.618 519.48 136.39 519.122 135.218C518.763 134.046 518.226 133.021 517.51 132.142C516.816 131.263 515.932 130.564 514.858 130.046C513.806 129.528 512.575 129.268 511.165 129.268C509.89 129.268 508.726 129.516 507.674 130.012C506.622 130.508 505.704 131.184 504.921 132.04C504.16 132.874 503.567 133.855 503.142 134.981C502.716 136.108 502.504 137.314 502.504 138.599C502.504 139.996 502.739 141.269 503.209 142.419C503.679 143.545 504.317 144.515 505.122 145.326C505.951 146.137 506.913 146.768 508.01 147.219C509.129 147.67 510.326 147.895 511.602 147.895C513.235 147.895 514.634 147.591 515.798 146.982C516.984 146.374 518.003 145.562 518.853 144.548L516.469 142.419C515.753 143.117 515.026 143.647 514.287 144.007C513.549 144.368 512.676 144.548 511.669 144.548C510.348 144.548 509.229 144.165 508.312 143.399C507.394 142.61 506.812 141.483 506.566 140.018ZM506.532 137.314C506.711 135.917 507.204 134.79 508.01 133.933C508.838 133.055 509.878 132.615 511.132 132.615C511.803 132.615 512.396 132.739 512.911 132.987C513.448 133.235 513.907 133.573 514.287 134.001C514.668 134.407 514.97 134.903 515.194 135.489C515.418 136.052 515.563 136.66 515.63 137.314H506.532Z" fill="#C30045"/>
<path d="M550.443 130.519V147.489H554.572V123.826H550.175L543.024 135.015L535.873 123.826H531.475V147.489H535.537V130.587L542.89 141.675H543.024L550.443 130.519Z" fill="#C30045"/>
<path d="M563.183 126.902V123.014H558.819V126.902H563.183ZM563.049 147.489V129.64H558.987V147.489H563.049Z" fill="#C30045"/>
<path d="M584.382 147.489V122.812H580.32V132.412C579.671 131.578 578.866 130.846 577.903 130.215C576.941 129.584 575.732 129.268 574.277 129.268C573.226 129.268 572.196 129.471 571.189 129.877C570.204 130.282 569.331 130.891 568.57 131.702C567.809 132.491 567.194 133.46 566.724 134.61C566.276 135.759 566.053 137.077 566.053 138.565C566.053 140.052 566.288 141.371 566.758 142.52C567.228 143.669 567.843 144.65 568.604 145.461C569.365 146.25 570.238 146.847 571.223 147.253C572.207 147.658 573.226 147.861 574.277 147.861C575.71 147.861 576.907 147.534 577.87 146.881C578.854 146.227 579.671 145.439 580.32 144.515V147.489H584.382ZM580.387 138.565C580.387 139.444 580.242 140.233 579.951 140.931C579.682 141.63 579.313 142.238 578.843 142.757C578.373 143.252 577.825 143.636 577.198 143.906C576.572 144.176 575.922 144.312 575.251 144.312C574.557 144.312 573.897 144.176 573.27 143.906C572.666 143.636 572.129 143.252 571.659 142.757C571.189 142.261 570.82 141.664 570.551 140.965C570.283 140.244 570.148 139.444 570.148 138.565C570.148 137.663 570.283 136.863 570.551 136.165C570.82 135.443 571.189 134.835 571.659 134.339C572.129 133.843 572.666 133.471 573.27 133.224C573.897 132.953 574.557 132.818 575.251 132.818C575.922 132.818 576.572 132.953 577.198 133.224C577.825 133.494 578.373 133.888 578.843 134.407C579.313 134.903 579.682 135.5 579.951 136.198C580.242 136.897 580.387 137.686 580.387 138.565Z" fill="#C30045"/>
<path d="M605.474 147.489V122.812H601.412V132.412C600.763 131.578 599.957 130.846 598.995 130.215C598.032 129.584 596.824 129.268 595.369 129.268C594.317 129.268 593.287 129.471 592.28 129.877C591.295 130.282 590.423 130.891 589.662 131.702C588.901 132.491 588.285 133.46 587.815 134.61C587.368 135.759 587.144 137.077 587.144 138.565C587.144 140.052 587.379 141.371 587.849 142.52C588.319 143.669 588.934 144.65 589.695 145.461C590.456 146.25 591.329 146.847 592.314 147.253C593.299 147.658 594.317 147.861 595.369 147.861C596.801 147.861 597.999 147.534 598.961 146.881C599.946 146.227 600.763 145.439 601.412 144.515V147.489H605.474ZM601.479 138.565C601.479 139.444 601.333 140.233 601.042 140.931C600.774 141.63 600.404 142.238 599.935 142.757C599.464 143.252 598.916 143.636 598.289 143.906C597.663 144.176 597.014 144.312 596.342 144.312C595.649 144.312 594.988 144.176 594.362 143.906C593.757 143.636 593.22 143.252 592.75 142.757C592.28 142.261 591.911 141.664 591.642 140.965C591.374 140.244 591.24 139.444 591.24 138.565C591.24 137.663 591.374 136.863 591.642 136.165C591.911 135.443 592.28 134.835 592.75 134.339C593.22 133.843 593.757 133.471 594.362 133.224C594.988 132.953 595.649 132.818 596.342 132.818C597.014 132.818 597.663 132.953 598.289 133.224C598.916 133.494 599.464 133.888 599.935 134.407C600.404 134.903 600.774 135.5 601.042 136.198C601.333 136.897 601.479 137.686 601.479 138.565Z" fill="#C30045"/>
<path d="M613.439 147.489V122.812H609.377V147.489H613.439Z" fill="#C30045"/>
<path d="M620.437 140.018H633.463C633.485 139.816 633.496 139.624 633.496 139.444C633.519 139.263 633.53 139.083 633.53 138.903C633.53 137.618 633.351 136.39 632.993 135.218C632.635 134.046 632.098 133.021 631.381 132.142C630.688 131.263 629.804 130.564 628.729 130.046C627.677 129.528 626.446 129.268 625.036 129.268C623.761 129.268 622.597 129.516 621.545 130.012C620.493 130.508 619.576 131.184 618.792 132.04C618.031 132.874 617.438 133.855 617.013 134.981C616.588 136.108 616.375 137.314 616.375 138.599C616.375 139.996 616.61 141.269 617.08 142.419C617.55 143.545 618.188 144.515 618.994 145.326C619.822 146.137 620.784 146.768 621.881 147.219C623 147.67 624.197 147.895 625.473 147.895C627.107 147.895 628.505 147.591 629.669 146.982C630.855 146.374 631.874 145.562 632.724 144.548L630.341 142.419C629.624 143.117 628.897 143.647 628.159 144.007C627.42 144.368 626.547 144.548 625.54 144.548C624.219 144.548 623.1 144.165 622.183 143.399C621.265 142.61 620.683 141.483 620.437 140.018ZM620.404 137.314C620.583 135.917 621.075 134.79 621.881 133.933C622.709 133.055 623.75 132.615 625.003 132.615C625.674 132.615 626.267 132.739 626.782 132.987C627.319 133.235 627.778 133.573 628.159 134.001C628.539 134.407 628.841 134.903 629.065 135.489C629.289 136.052 629.434 136.66 629.501 137.314H620.404Z" fill="#C30045"/>
<path d="M662.77 123.826H645.347V147.489H662.938V143.771H649.476V137.415H661.259V133.697H649.476V127.544H662.77V123.826Z" fill="#C30045"/>
<path d="M680.84 147.489V136.908C680.84 134.519 680.202 132.671 678.926 131.364C677.651 130.035 675.692 129.37 673.051 129.37C671.597 129.37 670.354 129.505 669.325 129.775C668.295 130.046 667.288 130.406 666.304 130.857L667.411 134.136C668.217 133.798 669.012 133.528 669.795 133.325C670.578 133.122 671.474 133.021 672.481 133.021C673.891 133.021 674.965 133.348 675.704 134.001C676.464 134.655 676.845 135.601 676.845 136.841V137.28C676.151 137.055 675.424 136.875 674.663 136.739C673.924 136.604 673.018 136.536 671.944 136.536C670.914 136.536 669.952 136.66 669.056 136.908C668.184 137.134 667.423 137.483 666.774 137.956C666.147 138.43 665.655 139.027 665.296 139.748C664.938 140.469 664.759 141.314 664.759 142.283V142.351C664.759 143.252 664.927 144.053 665.263 144.751C665.621 145.427 666.08 146.002 666.639 146.475C667.221 146.926 667.893 147.264 668.654 147.489C669.414 147.737 670.22 147.861 671.071 147.861C672.414 147.861 673.555 147.613 674.495 147.118C675.435 146.622 676.207 146.013 676.811 145.292V147.489H680.84ZM676.912 141.033C676.912 141.596 676.789 142.114 676.543 142.588C676.319 143.038 675.994 143.433 675.569 143.771C675.144 144.086 674.64 144.334 674.059 144.515C673.499 144.695 672.884 144.785 672.212 144.785C671.25 144.785 670.433 144.56 669.761 144.109C669.112 143.658 668.788 143.005 668.788 142.148V142.081C668.788 141.157 669.146 140.447 669.862 139.951C670.578 139.455 671.574 139.207 672.85 139.207C673.633 139.207 674.372 139.275 675.066 139.41C675.782 139.545 676.397 139.714 676.912 139.917V141.033Z" fill="#C30045"/>
<path d="M696.929 142.216V142.148C696.929 141.337 696.761 140.649 696.425 140.086C696.09 139.523 695.653 139.049 695.116 138.666C694.601 138.261 694.019 137.922 693.37 137.652C692.721 137.382 692.072 137.145 691.423 136.942C690.908 136.784 690.405 136.627 689.912 136.469C689.442 136.289 689.017 136.108 688.637 135.928C688.279 135.725 687.988 135.511 687.764 135.286C687.54 135.038 687.428 134.756 687.428 134.441V134.373C687.428 133.855 687.641 133.426 688.066 133.088C688.514 132.75 689.129 132.581 689.912 132.581C690.651 132.581 691.457 132.739 692.33 133.055C693.202 133.348 694.064 133.753 694.915 134.272L696.526 131.364C695.586 130.733 694.545 130.237 693.404 129.877C692.262 129.516 691.132 129.336 690.013 129.336C689.14 129.336 688.312 129.46 687.529 129.708C686.768 129.956 686.097 130.316 685.515 130.79C684.955 131.263 684.508 131.838 684.172 132.514C683.858 133.19 683.702 133.945 683.702 134.779V134.846C683.702 135.703 683.87 136.424 684.205 137.01C684.541 137.573 684.966 138.058 685.481 138.463C686.018 138.847 686.611 139.162 687.26 139.41C687.932 139.658 688.592 139.883 689.241 140.086C689.756 140.244 690.248 140.402 690.718 140.559C691.211 140.695 691.636 140.864 691.994 141.066C692.374 141.247 692.665 141.461 692.867 141.709C693.091 141.957 693.202 142.25 693.202 142.588V142.655C693.202 143.241 692.956 143.714 692.464 144.075C691.994 144.413 691.322 144.582 690.45 144.582C689.532 144.582 688.57 144.402 687.562 144.041C686.578 143.658 685.604 143.106 684.642 142.385L682.829 145.157C683.948 146.036 685.157 146.701 686.455 147.151C687.775 147.602 689.073 147.827 690.349 147.827C691.267 147.827 692.128 147.715 692.934 147.489C693.74 147.241 694.433 146.892 695.015 146.441C695.62 145.968 696.09 145.382 696.425 144.684C696.761 143.985 696.929 143.162 696.929 142.216Z" fill="#C30045"/>
<path d="M704.233 133.156H709V129.64H704.233V124.738H700.171V129.64H697.922V133.156H700.171V142.554C700.171 143.545 700.294 144.379 700.54 145.055C700.786 145.709 701.133 146.239 701.581 146.644C702.051 147.05 702.599 147.343 703.226 147.523C703.852 147.703 704.535 147.794 705.274 147.794C706.035 147.794 706.706 147.715 707.288 147.557C707.87 147.399 708.418 147.174 708.933 146.881V143.534C708.127 143.94 707.288 144.143 706.415 144.143C705.721 144.143 705.184 143.974 704.804 143.636C704.423 143.275 704.233 142.7 704.233 141.912V133.156Z" fill="#C30045"/>
</svg>
